<svg width="23" height="25" viewBox="0 0 23 25" fill="none" xmlns="http://www.w3.org/2000/svg">
<path fill-rule="evenodd" clip-rule="evenodd" d="M13.2158 17.6102C17.5384 17.6102 21.0426 14.106 21.0426 9.78344C21.0426 5.46084 17.5384 1.95669 13.2158 1.95669C8.89322 1.95669 5.38906 5.46084 5.38906 9.78344C5.38906 14.106 8.89322 17.6102 13.2158 17.6102ZM13.2158 19.5669C18.6191 19.5669 22.9993 15.1867 22.9993 9.78344C22.9993 4.3802 18.6191 0 13.2158 0C7.81257 0 3.43237 4.3802 3.43237 9.78344C3.43237 15.1867 7.81257 19.5669 13.2158 19.5669Z" fill="#313131"/>
<path fill-rule="evenodd" clip-rule="evenodd" d="M7.95996 17.2856L1.53209 24.946L0 23.6605L6.42788 16L7.95996 17.2856Z" fill="#313131"/>
</svg>
